<?xml version="1.0" standalone="no"?>
<!DOCTYPE svg PUBLIC "-//W3C//DTD SVG 20010904//EN"
 "http://www.w3.org/TR/2001/REC-SVG-20010904/DTD/svg10.dtd">
<svg version="1.0" xmlns="http://www.w3.org/2000/svg"
 width="700.000000pt" height="700.000000pt" viewBox="0 0 700.000000 700.000000"
 preserveAspectRatio="xMidYMid meet">
<metadata>
Created by potrace 1.14, written by Peter Selinger 2001-2017
</metadata>
<g transform="translate(0.000000,700.000000) scale(0.100000,-0.100000)"
fill="#000000" stroke="none">
<path d="M3820 5517 c-19 -8 -442 -226 -940 -486 -498 -260 -1065 -557 -1260
-659 -384 -200 -427 -226 -463 -281 -42 -63 -51 -107 -50 -251 0 -117 4 -147
27 -223 14 -49 38 -111 52 -139 l26 -50 -31 -32 c-60 -62 -74 -114 -74 -271 0
-124 3 -150 27 -230 29 -96 97 -233 130 -264 43 -40 2006 -1250 2045 -1261 75
-20 -16 -68 1176 625 220 128 607 353 860 500 253 147 473 279 488 293 42 39
57 75 57 133 0 69 -36 131 -92 160 -32 16 -55 20 -107 17 l-66 -3 -6 30 c-9
39 -11 189 -3 209 3 8 53 41 111 73 60 33 116 71 129 89 50 64 49 194 0 259
-43 56 -127 82 -198 62 -25 -7 -28 -4 -37 30 -12 41 -15 182 -5 207 3 9 36 33
73 53 169 92 201 127 201 222 0 58 -15 94 -57 133 -21 19 -1673 940 -1869
1041 -46 24 -104 29 -144 14z m784 -787 c394 -217 716 -397 716 -400 0 -3
-448 -249 -995 -548 -908 -496 -996 -542 -1017 -531 -22 12 -588 338 -1098
634 -140 82 -274 160 -298 175 l-43 27 998 521 c549 287 1003 521 1010 519 6
-1 334 -180 727 -397z m-2882 -987 c557 -325 1498 -868 1532 -884 55 -25 91
-24 154 6 29 13 447 240 930 504 482 264 884 481 892 483 9 2 16 -6 18 -22 1
-14 15 -67 29 -118 14 -51 24 -94 22 -96 -7 -5 -638 -370 -734 -424 -197 -111
-1230 -672 -1237 -672 -10 0 -384 219 -573 335 -82 51 -393 244 -690 428
l-540 335 -22 56 c-13 30 -26 87 -29 126 l-7 70 46 -16 c25 -8 119 -58 209
-111z m-175 -622 c22 -11 117 -64 210 -119 92 -55 353 -206 578 -337 226 -131
521 -307 657 -391 305 -189 295 -184 361 -184 52 0 68 9 718 386 613 357 1133
651 1161 657 6 1 16 -23 23 -58 6 -33 20 -86 30 -117 10 -32 17 -60 14 -62
-12 -12 -1925 -1119 -1939 -1123 -10 -3 -375 218 -891 537 -481 298 -890 552
-911 565 -44 29 -74 100 -84 199 -8 76 -1 80 73 47z"/>
</g>
</svg>
