<?xml version="1.0" standalone="no"?>
<!DOCTYPE svg PUBLIC "-//W3C//DTD SVG 20010904//EN"
 "http://www.w3.org/TR/2001/REC-SVG-20010904/DTD/svg10.dtd">
<svg version="1.0" xmlns="http://www.w3.org/2000/svg"
 width="700.000000pt" height="700.000000pt" viewBox="0 0 700.000000 700.000000"
 preserveAspectRatio="xMidYMid meet">
<metadata>
Created by potrace 1.14, written by Peter Selinger 2001-2017
</metadata>
<g transform="translate(0.000000,700.000000) scale(0.100000,-0.100000)"
fill="#000000" stroke="none">
<path d="M3935 6237 c-31 -12 -175 -85 -280 -142 -75 -40 -225 -119 -420 -220
-82 -43 -186 -97 -230 -120 -44 -23 -143 -75 -220 -115 -77 -40 -192 -100
-255 -133 -63 -33 -166 -86 -227 -118 -113 -59 -260 -136 -428 -224 -49 -26
-169 -88 -265 -138 -96 -50 -206 -108 -245 -128 -38 -21 -110 -58 -160 -83
-49 -26 -157 -82 -240 -126 -82 -44 -228 -119 -323 -167 -326 -165 -380 -238
-387 -518 -6 -209 28 -372 110 -536 l34 -68 -34 -30 c-44 -39 -82 -113 -99
-192 -14 -65 -15 -322 -2 -384 4 -16 9 -43 12 -60 9 -44 53 -173 77 -225 22
-48 90 -162 110 -186 12 -14 191 -128 512 -326 88 -54 167 -103 175 -107 8 -5
188 -117 400 -249 212 -132 423 -264 470 -292 47 -29 130 -81 185 -115 55 -33
278 -172 495 -306 217 -135 422 -262 455 -282 68 -42 153 -56 214 -36 38 13
44 16 521 294 168 98 325 189 350 203 25 13 50 28 55 32 6 4 28 18 50 30 40
22 576 333 750 435 119 70 812 473 850 495 305 173 712 414 733 433 12 12 34
44 48 73 76 156 -25 337 -201 357 -29 4 -65 -2 -111 -17 -18 -5 -23 -1 -29 26
-20 94 -26 219 -12 288 7 33 16 39 127 99 162 86 194 111 226 178 23 47 28 68
27 132 -1 110 -37 184 -111 234 -58 38 -157 50 -220 26 -29 -11 -29 -12 -37
26 -3 17 -9 44 -12 60 -11 52 -6 234 7 250 6 8 55 38 108 66 154 83 191 108
221 152 51 75 57 169 15 254 -21 43 -87 113 -107 113 -2 0 -56 29 -118 63 -63
35 -139 77 -169 94 -30 17 -75 41 -100 55 -51 28 -613 339 -675 373 -156 86
-366 202 -395 218 -19 11 -57 32 -85 47 -42 23 -309 170 -485 268 -25 13 -85
47 -135 74 -49 28 -96 55 -102 60 -7 6 -13 7 -13 3 0 -5 -8 -1 -17 7 -10 9
-70 43 -133 75 -97 51 -123 60 -170 61 -30 0 -69 -4 -85 -11z m111 -536 c5 -5
92 -55 194 -111 281 -155 293 -162 325 -180 17 -9 167 -92 335 -185 168 -92
364 -200 435 -240 72 -40 166 -91 210 -115 44 -24 92 -51 107 -61 14 -11 29
-19 32 -19 3 0 72 -37 152 -82 132 -73 145 -83 128 -95 -10 -7 -21 -13 -25
-13 -4 0 -42 -20 -83 -45 -42 -25 -79 -45 -84 -46 -4 -1 -25 -11 -47 -24 -35
-20 -100 -56 -288 -159 -27 -14 -207 -112 -400 -217 -194 -106 -356 -195 -362
-199 -5 -4 -48 -28 -95 -52 -47 -25 -172 -93 -278 -152 -106 -58 -195 -106
-197 -106 -2 0 -26 -13 -52 -28 -26 -16 -86 -49 -133 -74 -47 -25 -148 -81
-225 -123 -309 -170 -413 -225 -424 -225 -7 0 -285 158 -619 352 -334 193
-620 359 -637 368 -16 9 -163 95 -325 190 -162 95 -308 180 -325 189 -84 46
-85 42 28 101 206 107 334 174 432 225 55 29 168 87 250 130 83 43 173 90 200
105 28 15 118 62 200 105 287 149 690 359 920 480 44 23 166 86 270 140 105
55 222 116 260 137 71 38 103 46 121 29z m-3156 -1756 c36 -18 103 -56 149
-84 46 -28 85 -51 87 -51 2 0 302 -176 324 -190 8 -6 26 -16 40 -22 14 -7 44
-25 67 -40 23 -15 44 -28 46 -28 3 0 92 -51 198 -113 986 -576 1379 -798 1427
-806 59 -9 133 7 189 42 21 13 61 35 88 49 28 14 210 113 405 220 195 107 362
197 370 201 8 4 33 18 55 30 57 33 149 83 235 130 41 22 109 59 150 82 41 23
104 58 140 77 54 30 295 161 445 243 22 12 72 39 110 60 39 21 75 41 80 45 6
4 57 32 115 63 58 30 138 73 179 96 41 23 75 41 76 41 3 0 14 -54 22 -105 2
-16 19 -73 36 -126 l32 -96 -119 -69 c-66 -38 -147 -85 -180 -105 -329 -193
-762 -439 -1001 -569 -44 -24 -93 -51 -110 -60 -70 -39 -256 -140 -330 -180
-44 -24 -163 -89 -265 -145 -102 -56 -216 -119 -255 -140 -38 -20 -88 -48
-110 -60 -22 -12 -65 -36 -95 -52 -30 -16 -89 -49 -131 -71 -42 -23 -82 -42
-88 -42 -28 0 -1197 704 -1446 870 -22 15 -47 30 -55 33 -8 4 -27 15 -42 25
-34 22 -434 270 -543 337 -356 218 -353 217 -380 272 -31 65 -51 150 -54 230
l-2 62 38 -11 c21 -6 67 -25 103 -43z m-62 -952 c37 -14 96 -43 131 -65 34
-21 64 -38 66 -38 2 0 55 -31 119 -70 64 -38 121 -70 126 -70 6 0 10 -4 10
-10 0 -5 4 -10 9 -10 5 0 183 -102 397 -226 214 -125 405 -236 424 -246 236
-134 475 -278 884 -532 103 -65 207 -124 229 -132 45 -16 105 -16 152 -1 17 6
168 90 337 188 169 99 322 187 340 198 69 39 160 92 363 211 116 67 253 147
305 177 52 30 102 58 110 64 43 27 502 289 580 332 71 38 375 205 419 229 18
10 35 17 37 15 2 -2 11 -40 19 -84 8 -44 26 -113 40 -153 14 -41 25 -77 25
-81 0 -4 -39 -31 -87 -59 -49 -28 -95 -55 -103 -60 -8 -5 -55 -32 -105 -61
-49 -29 -143 -83 -207 -121 -65 -37 -120 -68 -122 -68 -3 0 -25 -13 -49 -30
-25 -16 -48 -30 -51 -30 -4 0 -19 -9 -34 -19 -20 -14 -641 -375 -1067 -621
-16 -10 -70 -41 -120 -70 -49 -29 -162 -94 -250 -145 -88 -51 -226 -131 -306
-178 l-146 -85 -264 164 c-144 90 -264 164 -266 164 -2 0 -16 9 -31 19 -28 20
-1048 653 -1092 678 -14 8 -62 38 -107 66 -46 29 -226 141 -400 249 l-318 197
-23 54 c-13 30 -29 78 -36 108 -14 60 -21 179 -11 179 4 0 37 -12 73 -27z"/>
</g>
</svg>
