<svg xmlns="http://www.w3.org/2000/svg" width="26.367" height="22.596"><g fill="none" stroke="#000" stroke-linecap="round" stroke-linejoin="round" stroke-miterlimit="10" stroke-width="2"><path data-name="Path 11" d="M25 14.143l-12.821 7.453-10.6-6.573A3.436 3.436 0 011 12.754c0-.554.162-.541.353-.692.574-.456 1.731.2 2.109.439.506.317 8.589 4.99 8.589 4.99L25 10.417"/><path data-name="Path 12" d="M23.651 11.154a3.8 3.8 0 00.422 3.364"/><path data-name="Path 13" d="M25 10.226l-12.821 7.452-10.6-6.573A3.435 3.435 0 011 8.838c0-.554.162-.541.353-.692.574-.456 1.731.2 2.109.439.506.315 8.589 4.989 8.589 4.989L25 6.499l-9.963-5.5L1.353 8.145"/><path data-name="Path 14" d="M23.651 7.236a3.8 3.8 0 00.422 3.364"/></g></svg>